<?xml version="1.0" standalone="no"?> <!DOCTYPE svg PUBLIC "-//W3C//DTD SVG 1.0//EN" "http://www.w3.org/TR/2001/REC-SVG-20010904/DTD/svg10.dtd" > <svg xmlns="http://www.w3.org/2000/svg" width="100%" height="100%">
<defs >
<font horiz-adv-x="457" ><font-face
    font-family="NES2"
    units-per-em="1024"
    panose-1="0 0 4 0 0 0 0 0 0 0"
    ascent="896"
    descent="-256"
    alphabetic="0" />
<missing-glyph horiz-adv-x="1607" d="M320 90V192H218V90H320ZM421 209V311H218V209H421ZM320 328V430H218V328H320ZM421 447V548H320Q277 548 248 519Q218 488 218 447H421ZM0 0V640H640V0H0Z" />
<glyph unicode=" " glyph-name="null" horiz-adv-x="199" />
<glyph unicode="!" glyph-name="null" horiz-adv-x="199" d="M0 0V128H128V0H0ZM0 192V640H128V192H0Z" />
<glyph unicode="&quot;" glyph-name="null" horiz-adv-x="455" d="M0 448V640H128V448H0ZM256 448V640H384V448H256Z" />
<glyph unicode="#" glyph-name="null" horiz-adv-x="711" d="M512 128V384Q512 436 474 474Q436 512 384 512H256Q203 512 165 474Q128 436 128 384V128H256V384H384V128H512ZM128 0Q74 0 37 37Q0 75 0 128V512Q0 565 37 602Q75 640 128 640H512Q565 640 602 602Q640
564 640 512V128Q640 74 602 37Q564 0 512 0H128Z" />
<glyph unicode="$" glyph-name="null" horiz-adv-x="711" d="M512 128V256H256V384H384V320H512V384Q512 436 474 474Q436 512 384 512H256Q203 512 165 474Q128 436 128 384V256Q128 203 165 165Q203 128 256 128H512ZM128 0Q74 0 37 37Q0 75 0 128V512Q0 565
37 602Q75 640 128 640H512Q565 640 602 602Q640 564 640 512V128Q640 74 602 37Q564 0 512 0H128Z" />
<glyph unicode="%" glyph-name="null" horiz-adv-x="711" d="M384 128Q436 128 474 165Q512 203 512 256V320H384V256H128V128H384ZM256 320V384H512V512H256Q203 512 165 474Q128 436 128 384V320H256ZM128 0Q74 0 37 37Q0 75 0 128V512Q0 565 37 602Q75 640
128 640H512Q565 640 602 602Q640 564 640 512V128Q640 74 602 37Q564 0 512 0H128Z" />
<glyph unicode="&amp;" glyph-name="null" horiz-adv-x="839" d="M512 128V256H192Q165 256 146 237Q128 218 128 192Q128 165 146 146Q165 128 192 128H512ZM128 0Q75 0 37 37Q0 74 0 128V256Q0 282 18 301Q37 320 64 320Q37 320 18 338Q0 357 0 384V512Q0 564
37 602Q74 640 128 640H640V512H192Q165 512 146 493Q128 474 128 448Q128 421 146 402Q165 384 192 384H512V448H640V384H768V256H640V0H128Z" />
<glyph unicode="&apos;" glyph-name="null" horiz-adv-x="199" d="M0 448V640H128V448H0Z" />
<glyph unicode="(" glyph-name="null" horiz-adv-x="327" d="M128 -128Q74 -128 37 -90Q0 -52 0 0V640Q0 693 37 730Q75 768 128 768H256V640H192Q165 640 146 621Q128 602 128 576V64Q128 37 146 18Q165 0 192 0H256V-128H128Z" />
<glyph unicode=")" glyph-name="null" horiz-adv-x="327" d="M0 -128V0H64Q90 0 109 18Q128 37 128 64V576Q128 602 109 621Q90 640 64 640H0V768H128Q180 768 218 730Q256 693 256 640V0Q256 -52 218 -90Q181 -128 128 -128H0Z" />
<glyph unicode="*" glyph-name="null" horiz-adv-x="1351" d="M896 0V128H1152V192H1280V128Q1280 74 1242 37Q1204 0 1152 0H896ZM0 0V256Q0 309 37 346Q75 384 128 384H256Q309 384 346 346Q384 308 384 256V0H256V256H128V0H0ZM576 0Q522 0 485 37Q448 75 448
128V256Q448 309 485 346Q523 384 576 384H704Q757 384 794 346Q832 308 832 256V192H704V256H576V128H832V0H576ZM896 192V256Q896 309 933 346Q971 384 1024 384H1280V256H1024V192H896Z" />
<glyph unicode="+" glyph-name="null" horiz-adv-x="455" d="M128 128V256H0V384H128V512H256V384H384V256H256V128H128Z" />
<glyph unicode="," glyph-name="null" horiz-adv-x="199" d="M0 -64V128H128V64Q128 10 90 -26Q52 -64 0 -64V-64Z" />
<glyph unicode="-" glyph-name="null" horiz-adv-x="455" d="M0 256V384H384V256H0Z" />
<glyph unicode="." glyph-name="null" horiz-adv-x="199" d="M0 0V128H128V0H0Z" />
<glyph unicode="/" glyph-name="null" horiz-adv-x="455" d="M0 0L320 640H448L128 0H0Z" />
<glyph unicode="0" glyph-name="null" horiz-adv-x="711" d="M448 128Q474 128 493 146Q512 165 512 192V448Q512 474 493 493Q474 512 448 512H192Q165 512 146 493Q128 474 128 448V192Q128 165 146 146Q165 128 192 128H448ZM128 0Q74 0 37 37Q0 75 0 128V512Q0
565 37 602Q75 640 128 640H512Q564 640 602 602Q640 565 640 512V128Q640 75 602 37Q565 0 512 0H128Z" />
<glyph unicode="1" glyph-name="null" horiz-adv-x="327" d="M128 0V448Q128 474 109 493Q90 512 64 512H0V640H128Q181 640 218 602Q256 564 256 512V0H128Z" />
<glyph unicode="2" glyph-name="null" horiz-adv-x="711" d="M0 0V256Q0 308 37 346Q74 384 128 384H448Q474 384 493 402Q512 421 512 448Q512 474 493 493Q474 512 448 512H0V640H512Q564 640 602 602Q640 565 640 512V384Q640 331 602 293Q565 256 512 256H192Q165
256 146 237Q128 218 128 192Q128 165 146 146Q165 128 192 128H640V0H0Z" />
<glyph unicode="3" glyph-name="null" horiz-adv-x="711" d="M0 0V128H448Q474 128 493 146Q512 165 512 192Q512 218 493 237Q474 256 448 256H128V384H448Q474 384 493 402Q512 421 512 448Q512 474 493 493Q474 512 448 512H0V640H512Q565 640 602 602Q640
564 640 512V384Q640 357 621 338Q602 320 576 320Q602 320 621 301Q640 282 640 256V128Q640 74 602 37Q564 0 512 0H0Z" />
<glyph unicode="4" glyph-name="null" horiz-adv-x="711" d="M512 0V256H128Q74 256 37 293Q0 331 0 384V640H128V448Q128 421 146 402Q165 384 192 384H512V640H640V0H512Z" />
<glyph unicode="5" glyph-name="null" horiz-adv-x="711" d="M0 0V128H448Q474 128 493 146Q512 165 512 192Q512 218 493 237Q474 256 448 256H0V640H640V512H192Q165 512 146 493Q128 474 128 448Q128 421 146 402Q165 384 192 384H512Q565 384 602 346Q640
308 640 256V128Q640 74 602 37Q564 0 512 0H0Z" />
<glyph unicode="6" glyph-name="null" horiz-adv-x="711" d="M448 128Q474 128 493 146Q512 165 512 192Q512 218 493 237Q474 256 448 256H192Q165 256 146 237Q128 218 128 192Q128 165 146 146Q165 128 192 128H448ZM128 0Q74 0 37 37Q0 75 0 128V512Q0 565
37 602Q75 640 128 640H640V512H192Q165 512 146 493Q128 474 128 448Q128 421 146 402Q165 384 192 384H512Q565 384 602 346Q640 308 640 256V128Q640 74 602 37Q564 0 512 0H128Z" />
<glyph unicode="7" glyph-name="null" horiz-adv-x="711" d="M512 0V448Q512 474 493 493Q474 512 448 512H0V640H512Q565 640 602 602Q640 564 640 512V0H512Z" />
<glyph unicode="8" glyph-name="null" horiz-adv-x="711" d="M448 128Q474 128 493 146Q512 165 512 192Q512 218 493 237Q474 256 448 256H192Q165 256 146 237Q128 218 128 192Q128 165 146 146Q165 128 192 128H448ZM448 384Q474 384 493 402Q512 421 512 448Q512
474 493 493Q474 512 448 512H192Q165 512 146 493Q128 474 128 448Q128 421 146 402Q165 384 192 384H448ZM128 0Q75 0 37 37Q0 74 0 128V256Q0 282 18 301Q37 320 64 320Q37 320 18 338Q0 357 0 384V512Q0 564 37 602Q74 640 128 640H512Q565 640 602 602Q640
564 640 512V384Q640 357 621 338Q602 320 576 320Q602 320 621 301Q640 282 640 256V128Q640 74 602 37Q564 0 512 0H128Z" />
<glyph unicode="9" glyph-name="null" horiz-adv-x="711" d="M448 384Q474 384 493 402Q512 421 512 448Q512 474 493 493Q474 512 448 512H192Q165 512 146 493Q128 474 128 448Q128 421 146 402Q165 384 192 384H448ZM0 0V128H448Q474 128 493 146Q512 165 512
192Q512 218 493 237Q474 256 448 256H128Q74 256 37 293Q0 331 0 384V512Q0 565 37 602Q75 640 128 640H512Q565 640 602 602Q640 564 640 512V128Q640 74 602 37Q564 0 512 0H0Z" />
<glyph unicode=":" glyph-name="null" horiz-adv-x="199" d="M0 0V128H128V0H0ZM0 384V512H128V384H0Z" />
<glyph unicode=";" glyph-name="null" horiz-adv-x="199" d="M0 -64V128H128V64Q128 10 90 -26Q52 -64 0 -64V-64ZM0 384V512H128V384H0Z" />
<glyph unicode="&lt;" glyph-name="null" horiz-adv-x="455" d="M384 0L0 192V448L384 640V448L128 320L384 192V0V0Z" />
<glyph unicode="=" glyph-name="null" horiz-adv-x="583" d="M0 128V256H512V128H0ZM0 384V512H512V384H0Z" />
<glyph unicode="&gt;" glyph-name="null" horiz-adv-x="455" d="M0 0V192L256 320L0 448V640L384 448V192L0 0V0Z" />
<glyph unicode="?" glyph-name="null" horiz-adv-x="711" d="M256 0V128H384V0H256ZM256 192V256Q256 309 293 346Q331 384 384 384H448Q474 384 493 402Q512 421 512 448Q512 474 493 493Q474 512 448 512H192Q165 512 146 493Q128 474 128 448V384H0V512Q0 565
37 602Q75 640 128 640H512Q565 640 602 602Q640 564 640 512V384Q640 330 602 293Q564 256 512 256H448Q421 256 402 237Q384 218 384 192H256Z" />
<glyph unicode="@" glyph-name="null" horiz-adv-x="711" d="M512 320V512H384V320H512ZM128 0Q74 0 37 37Q0 75 0 128V512Q0 565 37 602Q75 640 128 640H640V192H256V512H128V128H640V0H128Z" />
<glyph unicode="A" glyph-name="null" horiz-adv-x="711" d="M512 384V448Q512 474 493 493Q474 512 448 512H192Q165 512 146 493Q128 474 128 448V384H512ZM0 0V512Q0 565 37 602Q75 640 128 640H512Q565 640 602 602Q640 564 640 512V0H512V256H128V0H0Z" />
<glyph unicode="B" glyph-name="null" horiz-adv-x="711" d="M448 128Q474 128 493 146Q512 165 512 192Q512 218 493 237Q474 256 448 256H128V128H448ZM448 384Q474 384 493 402Q512 421 512 448Q512 474 493 493Q474 512 448 512H128V384H448ZM0 0V640H512Q565
640 602 602Q640 564 640 512V384Q640 357 621 338Q602 320 576 320Q602 320 621 301Q640 282 640 256V128Q640 74 602 37Q564 0 512 0H0Z" />
<glyph unicode="C" glyph-name="null" horiz-adv-x="711" d="M128 0Q74 0 37 37Q0 75 0 128V512Q0 565 37 602Q75 640 128 640H640V512H192Q165 512 146 493Q128 474 128 448V192Q128 165 146 146Q165 128 192 128H640V0H128Z" />
<glyph unicode="D" glyph-name="null" horiz-adv-x="711" d="M448 128Q474 128 493 146Q512 165 512 192V448Q512 474 493 493Q474 512 448 512H128V128H448ZM0 0V640H512Q564 640 602 602Q640 565 640 512V128Q640 75 602 37Q565 0 512 0H0Z" />
<glyph unicode="E" glyph-name="null" horiz-adv-x="711" d="M128 0Q74 0 37 37Q0 75 0 128V640H640V512H192Q165 512 146 493Q128 474 128 448Q128 421 146 402Q165 384 192 384H640V256H192Q165 256 146 237Q128 218 128 192Q128 165 146 146Q165 128 192 128H640V0H128Z"
/>
<glyph unicode="F" glyph-name="null" horiz-adv-x="711" d="M0 0V640H640V512H192Q165 512 146 493Q128 474 128 448Q128 421 146 402Q165 384 192 384H640V256H192Q165 256 146 237Q128 218 128 192V0H0Z" />
<glyph unicode="G" glyph-name="null" horiz-adv-x="711" d="M128 0Q74 0 37 37Q0 75 0 128V512Q0 565 37 602Q75 640 128 640H640V512H192Q165 512 146 493Q128 474 128 448V192Q128 165 146 146Q165 128 192 128H448Q474 128 493 146Q512 165 512 192V256H256V384H640V128Q640
74 602 37Q564 0 512 0H128Z" />
<glyph unicode="H" glyph-name="null" horiz-adv-x="711" d="M0 0V640H128V384H512V640H640V0H512V256H128V0H0Z" />
<glyph unicode="I" glyph-name="null" horiz-adv-x="199" d="M0 0V640H128V0H0Z" />
<glyph unicode="J" glyph-name="null" horiz-adv-x="711" d="M128 0Q74 0 37 37Q0 75 0 128V256H128V192Q128 165 146 146Q165 128 192 128H448Q474 128 493 146Q512 165 512 192V640H640V128Q640 75 602 37Q565 0 512 0H128Z" />
<glyph unicode="K" glyph-name="null" horiz-adv-x="711" d="M0 0V640H128V384H448Q474 384 493 402Q512 421 512 448V640H640V384Q640 357 621 338Q602 320 576 320Q602 320 621 301Q640 282 640 256V0H512V192Q512 218 493 237Q474 256 448 256H128V0H0Z" />
<glyph unicode="L" glyph-name="null" horiz-adv-x="711" d="M0 0V640H128V128H640V0H0Z" />
<glyph unicode="M" glyph-name="null" horiz-adv-x="967" d="M0 0V640H768Q821 640 858 602Q896 564 896 512V0H768V448Q768 474 749 493Q730 512 704 512H576Q549 512 530 493Q512 474 512 448V0H384V448Q384 474 365 493Q346 512 320 512H192Q165 512 146 493Q128
474 128 448V0H0Z" />
<glyph unicode="N" glyph-name="null" horiz-adv-x="711" d="M0 0V640H512Q565 640 602 602Q640 564 640 512V0H512V448Q512 474 493 493Q474 512 448 512H128V0H0Z" />
<glyph unicode="O" glyph-name="null" horiz-adv-x="711" d="M448 128Q474 128 493 146Q512 165 512 192V448Q512 474 493 493Q474 512 448 512H192Q165 512 146 493Q128 474 128 448V192Q128 165 146 146Q165 128 192 128H448ZM128 0Q74 0 37 37Q0 75 0 128V512Q0
565 37 602Q75 640 128 640H512Q564 640 602 602Q640 565 640 512V128Q640 75 602 37Q565 0 512 0H128Z" />
<glyph unicode="P" glyph-name="null" horiz-adv-x="711" d="M448 384Q474 384 493 402Q512 421 512 448Q512 474 493 493Q474 512 448 512H192Q165 512 146 493Q128 474 128 448Q128 421 146 402Q165 384 192 384H448ZM0 0V640H512Q564 640 602 602Q640 565 640
512V384Q640 331 602 293Q565 256 512 256H192Q165 256 146 237Q128 218 128 192V0H0Z" />
<glyph unicode="Q" glyph-name="null" horiz-adv-x="711" d="M512 128V448Q512 474 493 493Q474 512 448 512H192Q165 512 146 493Q128 474 128 448V192Q128 165 146 146Q165 128 192 128H512ZM128 0Q74 0 37 37Q0 75 0 128V512Q0 565 37 602Q75 640 128 640H512Q564
640 602 602Q640 565 640 512V0H128Z" />
<glyph unicode="R" glyph-name="null" horiz-adv-x="711" d="M448 384Q474 384 493 402Q512 421 512 448Q512 474 493 493Q474 512 448 512H128V384H448ZM0 0V640H512Q565 640 602 602Q640 564 640 512V384Q640 357 621 338Q602 320 576 320Q602 320 621 301Q640
282 640 256V0H512V192Q512 218 493 237Q474 256 448 256H128V0H0Z" />
<glyph unicode="S" glyph-name="null" horiz-adv-x="711" d="M0 0V128H448Q474 128 493 146Q512 165 512 192Q512 218 493 237Q474 256 448 256H128Q74 256 37 293Q0 331 0 384V512Q0 565 37 602Q75 640 128 640H640V512H192Q165 512 146 493Q128 474 128 448Q128
421 146 402Q165 384 192 384H512Q565 384 602 346Q640 308 640 256V128Q640 74 602 37Q564 0 512 0H0Z" />
<glyph unicode="T" glyph-name="null" horiz-adv-x="711" d="M256 0V512H0V640H640V512H384V0H256Z" />
<glyph unicode="U" glyph-name="null" horiz-adv-x="711" d="M128 0Q74 0 37 37Q0 75 0 128V640H128V192Q128 165 146 146Q165 128 192 128H448Q474 128 493 146Q512 165 512 192V640H640V128Q640 75 602 37Q565 0 512 0H128Z" />
<glyph unicode="V" glyph-name="null" horiz-adv-x="711" d="M128 0Q74 0 37 37Q0 75 0 128V640H128V192Q128 165 146 146Q165 128 192 128H512V640H640V0H128Z" />
<glyph unicode="W" glyph-name="null" horiz-adv-x="967" d="M128 0Q74 0 37 37Q0 75 0 128V640H128V192Q128 165 146 146Q165 128 192 128H320Q346 128 365 146Q384 165 384 192V640H512V192Q512 165 530 146Q549 128 576 128H704Q730 128 749 146Q768 165 768
192V640H896V0H128Z" />
<glyph unicode="X" glyph-name="null" horiz-adv-x="711" d="M0 0V256Q0 282 18 301Q37 320 64 320Q37 320 18 338Q0 357 0 384V640H128V448Q128 421 146 402Q165 384 192 384H448Q474 384 493 402Q512 421 512 448V640H640V384Q640 357 621 338Q602 320 576 320Q602
320 621 301Q640 282 640 256V0H512V192Q512 218 493 237Q474 256 448 256H192Q165 256 146 237Q128 218 128 192V0H0Z" />
<glyph unicode="Y" glyph-name="null" horiz-adv-x="711" d="M256 0V256H128Q74 256 37 293Q0 331 0 384V640H128V448Q128 421 146 402Q165 384 192 384H448Q474 384 493 402Q512 421 512 448V640H640V384Q640 331 602 293Q565 256 512 256H384V0H256Z" />
<glyph unicode="Z" glyph-name="null" horiz-adv-x="711" d="M0 0V256Q0 308 37 346Q74 384 128 384H448Q474 384 493 402Q512 421 512 448V512H0V640H640V384Q640 331 602 293Q565 256 512 256H192Q165 256 146 237Q128 218 128 192V128H640V0H0Z" />
<glyph unicode="[" glyph-name="null" horiz-adv-x="327" d="M0 -128V768H256V640H128V0H256V-128H0Z" />
<glyph unicode="\" glyph-name="null" horiz-adv-x="455" d="M320 0L0 640H128L448 0H320Z" />
<glyph unicode="]" glyph-name="null" horiz-adv-x="327" d="M0 -128V0H128V640H0V768H256V-128H0Z" />
<glyph unicode="^" glyph-name="null" horiz-adv-x="2247" d="M1920 128Q1972 128 2010 165Q2048 203 2048 256V320H1920V256H1664V128H1920ZM512 128V384Q512 436 474 474Q436 512 384 512H256Q203 512 165 474Q128 436 128 384V128H256V384H384V128H512ZM1280
128V256H1024V384H1152V320H1280V384Q1280 436 1242 474Q1204 512 1152 512H1024Q971 512 933 474Q896 436 896 384V256Q896 203 933 165Q971 128 1024 128H1280ZM1792 320V384H2048V512H1792Q1739 512 1701 474Q1664 436 1664 384V320H1792ZM128 0Q74 0 37 37Q0
75 0 128V512Q0 565 37 602Q75 640 128 640H512Q565 640 602 602Q640 564 640 512V128Q640 74 602 37Q564 0 512 0H128ZM896 0Q842 0 805 37Q768 75 768 128V512Q768 565 805 602Q843 640 896 640H1280Q1333 640 1370 602Q1408 564 1408 512V128Q1408 74 1370 37Q1332
0 1280 0H896ZM1664 0Q1610 0 1573 37Q1536 75 1536 128V512Q1536 565 1573 602Q1611 640 1664 640H2048Q2101 640 2138 602Q2176 564 2176 512V128Q2176 74 2138 37Q2100 0 2048 0H1664Z" />
<glyph unicode="_" glyph-name="null" horiz-adv-x="711" d="M0 0V128H640V0H0Z" />
<glyph unicode="`" glyph-name="null" horiz-adv-x="327" d="M128 640L0 768H128L256 640H128Z" />
<glyph unicode="a" glyph-name="null" horiz-adv-x="583" d="M384 128V192H160Q146 192 137 182Q128 173 128 160Q128 146 137 137Q146 128 160 128H384ZM128 0Q75 0 37 37Q0 74 0 128V192Q0 244 37 282Q74 320 128 320H352Q365 320 374 329Q384 338 384 352Q384
365 374 374Q365 384 352 384H0V512H384Q436 512 474 474Q512 437 512 384V0H128Z" />
<glyph unicode="b" glyph-name="null" horiz-adv-x="583" d="M320 128Q346 128 365 146Q384 165 384 192V320Q384 346 365 365Q346 384 320 384H128V128H320ZM0 0V640H128V512H384Q437 512 474 474Q512 436 512 384V128Q512 74 474 37Q436 0 384 0H0Z" />
<glyph unicode="c" glyph-name="null" horiz-adv-x="583" d="M128 0Q75 0 37 37Q0 74 0 128V384Q0 436 37 474Q74 512 128 512H512V384H192Q165 384 146 365Q128 346 128 320V192Q128 165 146 146Q165 128 192 128H512V0H128Z" />
<glyph unicode="d" glyph-name="null" horiz-adv-x="583" d="M384 128V384H192Q165 384 146 365Q128 346 128 320V192Q128 165 146 146Q165 128 192 128H384ZM128 0Q75 0 37 37Q0 74 0 128V384Q0 436 37 474Q74 512 128 512H384V640H512V0H128Z" />
<glyph unicode="e" glyph-name="null" horiz-adv-x="583" d="M384 320Q384 346 365 365Q346 384 320 384H192Q165 384 146 365Q128 346 128 320H384ZM128 0Q75 0 37 37Q0 74 0 128V384Q0 436 37 474Q74 512 128 512H384Q437 512 474 474Q512 436 512 384V192H128Q128
165 146 146Q165 128 192 128H512V0H128Z" />
<glyph unicode="f" glyph-name="null" horiz-adv-x="455" d="M0 0V512Q0 565 37 602Q75 640 128 640H384V512H192Q165 512 146 493Q128 474 128 448V384H384V256H128V0H0Z" />
<glyph unicode="g" glyph-name="null" horiz-adv-x="583" d="M384 128V384H192Q165 384 146 365Q128 346 128 320V192Q128 165 146 146Q165 128 192 128H384ZM0 -192V-64H320Q346 -64 365 -45Q384 -26 384 0H128Q75 0 37 37Q0 74 0 128V384Q0 436 37 474Q74 512
128 512H512V-64Q512 -117 474 -154Q436 -192 384 -192H0Z" />
<glyph unicode="h" glyph-name="null" horiz-adv-x="583" d="M0 0V640H128V512H384Q437 512 474 474Q512 436 512 384V0H384V320Q384 346 365 365Q346 384 320 384H128V0H0Z" />
<glyph unicode="i" glyph-name="null" horiz-adv-x="199" d="M0 0V512H128V0H0Z" />
<glyph unicode="j" glyph-name="null" horiz-adv-x="327" d="M0 -192V-64H64Q90 -64 109 -45Q128 -26 128 0V512H256V-64Q256 -117 218 -154Q180 -192 128 -192H0Z" />
<glyph unicode="k" glyph-name="null" horiz-adv-x="583" d="M0 0V640H128V320H320Q346 320 365 338Q384 357 384 384V512H512V320Q512 293 493 274Q474 256 448 256Q474 256 493 237Q512 218 512 192V0H384V128Q384 154 365 173Q346 192 320 192H128V0H0Z" />
<glyph unicode="l" glyph-name="null" horiz-adv-x="199" d="M0 0V640H128V0H0Z" />
<glyph unicode="m" glyph-name="null" horiz-adv-x="711" d="M0 0V512H512Q565 512 602 474Q640 436 640 384V0H512V320Q512 346 493 365Q474 384 448 384Q421 384 402 365Q384 346 384 320V0H256V320Q256 346 237 365Q218 384 192 384Q165 384 146 365Q128 346
128 320V0H0Z" />
<glyph unicode="n" glyph-name="null" horiz-adv-x="583" d="M0 0V512H384Q437 512 474 474Q512 436 512 384V0H384V320Q384 346 365 365Q346 384 320 384H128V0H0Z" />
<glyph unicode="o" glyph-name="null" horiz-adv-x="583" d="M320 128Q346 128 365 146Q384 165 384 192V320Q384 346 365 365Q346 384 320 384H192Q165 384 146 365Q128 346 128 320V192Q128 165 146 146Q165 128 192 128H320ZM128 0Q75 0 37 37Q0 74 0 128V384Q0
436 37 474Q74 512 128 512H384Q437 512 474 474Q512 436 512 384V128Q512 74 474 37Q436 0 384 0H128Z" />
<glyph unicode="p" glyph-name="null" horiz-adv-x="583" d="M320 128Q346 128 365 146Q384 165 384 192V320Q384 346 365 365Q346 384 320 384H128V128H320ZM0 -128V512H384Q436 512 474 474Q512 437 512 384V128Q512 75 474 37Q437 0 384 0H128V-128H0Z" />
<glyph unicode="q" glyph-name="null" horiz-adv-x="583" d="M384 128V384H192Q165 384 146 365Q128 346 128 320V192Q128 165 146 146Q165 128 192 128H384ZM384 -128V0H128Q74 0 37 37Q0 75 0 128V384Q0 437 37 474Q75 512 128 512H512V-128H384Z" />
<glyph unicode="r" glyph-name="null" horiz-adv-x="327" d="M0 0V384Q0 437 37 474Q75 512 128 512H256V384H192Q165 384 146 365Q128 346 128 320V0H0Z" />
<glyph unicode="s" glyph-name="null" horiz-adv-x="583" d="M0 0V128H352Q365 128 374 137Q384 146 384 160Q384 173 374 182Q365 192 352 192H128Q74 192 37 229Q0 267 0 320V384Q0 437 37 474Q75 512 128 512H512V384H160Q146 384 137 374Q128 365 128 352Q128
338 137 329Q146 320 160 320H384Q437 320 474 282Q512 244 512 192V128Q512 74 474 37Q436 0 384 0H0Z" />
<glyph unicode="t" glyph-name="null" horiz-adv-x="327" d="M128 0Q74 0 37 37Q0 75 0 128V640H128V512H256V384H128V192Q128 165 146 146Q165 128 192 128H256V0H128Z" />
<glyph unicode="u" glyph-name="null" horiz-adv-x="583" d="M128 0Q74 0 37 37Q0 75 0 128V512H128V192Q128 165 146 146Q165 128 192 128H320Q346 128 365 146Q384 165 384 192V512H512V128Q512 74 474 37Q436 0 384 0H128Z" />
<glyph unicode="v" glyph-name="null" horiz-adv-x="583" d="M128 0Q74 0 37 37Q0 75 0 128V512H128V192Q128 165 146 146Q165 128 192 128H384V512H512V0H128Z" />
<glyph unicode="w" glyph-name="null" horiz-adv-x="711" d="M128 0Q74 0 37 37Q0 75 0 128V512H128V192Q128 165 146 146Q165 128 192 128Q218 128 237 146Q256 165 256 192V512H384V192Q384 165 402 146Q421 128 448 128Q474 128 493 146Q512 165 512 192V512H640V0H128Z"
/>
<glyph unicode="x" glyph-name="null" horiz-adv-x="583" d="M0 0V192Q0 218 18 237Q37 256 64 256Q37 256 18 274Q0 293 0 320V512H128V384Q128 357 146 338Q165 320 192 320H320Q346 320 365 338Q384 357 384 384V512H512V320Q512 293 493 274Q474 256 448 256Q474
256 493 237Q512 218 512 192V0H384V128Q384 154 365 173Q346 192 320 192H192Q165 192 146 173Q128 154 128 128V0H0Z" />
<glyph unicode="y" glyph-name="null" horiz-adv-x="583" d="M0 -192V-64H320Q346 -64 365 -45Q384 -26 384 0H128Q75 0 37 37Q0 74 0 128V512H128V192Q128 165 146 146Q165 128 192 128H384V512H512V-64Q512 -117 474 -154Q436 -192 384 -192H0Z" />
<glyph unicode="z" glyph-name="null" horiz-adv-x="583" d="M0 0V192Q0 244 37 282Q74 320 128 320H352Q365 320 374 329Q384 338 384 352Q384 365 374 374Q365 384 352 384H0V512H512V320Q512 267 474 229Q437 192 384 192H160Q146 192 137 182Q128 173 128
160Q128 146 137 137Q146 128 160 128H512V0H0Z" />
<glyph unicode="{" glyph-name="null" horiz-adv-x="455" d="M256 -128Q202 -128 165 -90Q128 -52 128 0V192Q128 218 109 237Q90 256 64 256H0V384H64Q90 384 109 402Q128 421 128 448V640Q128 693 165 730Q203 768 256 768H384V640H320Q293 640 274 621Q256
602 256 576V384Q256 357 237 338Q218 320 192 320Q218 320 237 301Q256 282 256 256V64Q256 37 274 18Q293 0 320 0H384V-128H256Z" />
<glyph unicode="|" glyph-name="null" horiz-adv-x="199" d="M0 -128V768H128V-128H0Z" />
<glyph unicode="}" glyph-name="null" horiz-adv-x="455" d="M0 -128V0H64Q90 0 109 18Q128 37 128 64V256Q128 282 146 301Q165 320 192 320Q165 320 146 338Q128 357 128 384V576Q128 602 109 621Q90 640 64 640H0V768H128Q180 768 218 730Q256 693 256 640V448Q256
421 274 402Q293 384 320 384H384V256H320Q293 256 274 237Q256 218 256 192V0Q256 -52 218 -90Q181 -128 128 -128H0Z" />
<glyph unicode="~" glyph-name="null" horiz-adv-x="711" d="M0 256V384Q0 437 37 474Q75 512 128 512H320Q346 512 365 493Q384 474 384 448Q384 421 402 402Q421 384 448 384Q474 384 493 402Q512 421 512 448V512H640V384Q640 330 602 293Q564 256 512 256H320Q293
256 274 274Q256 293 256 320Q256 346 237 365Q218 384 192 384Q165 384 146 365Q128 346 128 320V256H0Z" />
</font>
</defs>
</svg>
